<svg xmlns="http://www.w3.org/2000/svg" viewBox="0 0 100 100">
  <defs>
    <linearGradient id="moonGrad" x1="0%" y1="0%" x2="100%" y2="100%">
      <stop offset="0%" style="stop-color:#059669"/>
      <stop offset="100%" style="stop-color:#10b981"/>
    </linearGradient>
  </defs>
  <circle cx="50" cy="50" r="48" fill="url(#moonGrad)"/>
  <path d="M65 25c-16.5 0-30 13.5-30 30s13.5 30 30 30c4.5 0 8.8-1 12.6-2.8-6.4 4.3-14.1 6.8-22.4 6.8C34.5 89 18 72.5 18 51.8 18 31 34.5 14.5 55.2 14.5c8.3 0 16 2.5 22.4 6.8C73.8 19.5 69.5 25 65 25z" fill="#fff"/>
  <circle cx="68" cy="35" r="4" fill="#fff" opacity="0.6"/>
  <circle cx="75" cy="50" r="3" fill="#fff" opacity="0.4"/>
</svg>
